# Blender v2.76 (sub 0) OBJ File: 'low-poly-clouds.blend'
# www.blender.org
mtllib low-poly-clouds.mtl
o Plane_Plane.003
v -153.963089 -153.963089 -4.835725
v 153.963089 -153.963089 -4.835725
v -153.963089 153.963089 -4.835712
v 153.963089 153.963089 -4.835712
vn 0.000000 -0.000000 1.000000
usemtl Sky
s off
f 1//1 2//1 4//1 3//1
o Cloud2_Icosphere.011
v -2.557313 5.193326 0.844205
v -2.703391 4.444447 -0.144268
v -2.343953 4.544003 0.888838
v -2.592218 4.116076 0.322263
v -2.810139 5.413486 0.322263
v -2.698966 5.085115 -0.144269
v -3.219482 5.085113 0.230692
v -2.181508 5.085113 0.234903
v -2.270035 5.212081 0.552011
v -3.023723 5.085114 0.841601
v -3.339586 4.732007 0.401427
v -2.898458 4.732007 -0.205735
v -2.156998 4.546621 0.082843
v -2.062771 4.797554 0.401427
v -2.898458 4.732007 1.008588
v -3.221165 4.354205 0.401427
v -2.845044 4.336235 0.844205
v 0.057540 5.319051 0.365154
v -0.274622 5.334922 0.756184
v -0.506825 4.786323 -0.184707
v -0.086197 4.761487 0.795600
v -0.305448 4.383572 0.295242
v -0.497900 5.529351 0.295242
v -0.399720 5.239357 -0.116764
v -0.961008 5.103170 0.297298
v 0.078907 4.763798 0.083803
v 0.162121 4.985405 0.365154
v -0.639053 5.103171 0.876143
v -0.860888 4.593870 0.365153
v -0.528726 4.578001 0.756183
v -1.332684 5.126293 1.370530
v -0.629717 5.412601 0.646519
v -1.390986 5.883085 0.646519
v -1.483074 4.365015 1.266520
v -0.631954 4.365020 0.653405
v -1.060549 3.931159 0.374229
v -1.818358 3.931158 0.620456
v -2.329194 4.365018 0.646519
v -1.567926 3.894533 0.101940
v -2.001001 4.365017 -0.349778
v -0.952047 4.365017 -0.345520
v -0.435566 4.942399 0.374229
v -0.891670 4.888809 1.183246
v -2.067241 4.888809 1.183246
v -2.067241 4.888809 -0.434787
v -2.523345 4.835219 0.374229
v -1.156875 4.942399 -0.618569
v -2.006863 5.412601 1.093978
v -2.326957 5.412599 0.095054
v -1.475838 5.412602 -0.518061
v -0.774474 5.620210 0.128002
v -1.898363 5.846458 0.374229
v -1.317000 5.739463 -0.125766
vn -0.227100 -0.931800 -0.283100
vn -0.677900 -0.269800 -0.683800
vn 0.809000 0.009000 0.587800
vn -0.354300 0.037500 0.934400
vn -0.257100 -0.150100 -0.954700
vn 0.809000 0.009000 -0.587800
vn 0.363100 0.800500 0.476900
vn -0.378900 0.711900 0.591300
vn -0.738600 0.652500 -0.169200
vn 0.318500 0.918800 -0.233300
vn -0.296400 0.820100 -0.489500
vn 0.784200 0.245800 -0.569800
vn 0.721900 0.346300 -0.599200
vn -0.072800 0.374200 -0.924500
vn -0.817000 0.545200 -0.187700
vn -0.374300 -0.056000 0.925600
vn 0.573100 0.523500 0.630400
vn 0.784200 0.245800 0.569800
vn 0.097200 -0.397100 -0.912600
vn -0.801900 -0.195900 -0.564500
vn -0.903100 -0.421200 -0.083500
vn -0.909300 -0.150900 0.387800
vn -0.572800 -0.246800 0.781700
vn 0.528700 -0.426400 0.733900
vn 0.861400 -0.426400 -0.276000
vn 0.202900 -0.863200 -0.462400
vn -0.424900 -0.875100 0.231800
vn -0.352500 -0.802700 0.481000
vn 0.639900 -0.740600 -0.205100
vn 0.422700 -0.690600 0.586800
vn -0.318500 -0.918800 -0.233300
vn -0.736400 -0.284200 -0.614000
vn -0.417600 -0.037400 0.907900
vn -0.227500 -0.141000 -0.963500
vn 0.360400 0.783500 0.506300
vn -0.287600 0.670800 0.683600
vn 0.869000 0.106400 -0.483300
vn 0.734300 0.294000 -0.611800
vn -0.005100 0.221700 -0.975100
vn 0.779300 0.230800 0.582600
vn -0.779500 -0.244300 -0.576800
vn -0.847400 -0.265600 0.459800
vn -0.644400 -0.365200 0.671800
vn 0.613300 -0.257000 0.746900
vn 0.341100 -0.795500 -0.500800
vn -0.363100 -0.800500 0.476900
vn 0.633000 -0.689500 -0.352100
vn 0.561700 -0.607600 0.561500
vn 0.027100 -0.996100 0.083500
vn 0.871200 -0.060800 0.487100
vn -0.218800 -0.089500 0.971700
vn -0.184400 -0.180100 -0.966200
vn 0.401200 0.649200 0.646200
vn 0.278600 0.948700 -0.149700
vn 0.444700 0.591300 -0.672700
vn 0.025800 0.983300 -0.180400
vn -0.311400 0.788300 -0.530700
vn -0.393300 0.739800 -0.545900
vn -0.763900 0.597100 0.244800
vn -0.305700 0.835100 0.457300
vn -0.002900 0.691200 0.722700
vn 0.516100 0.835100 0.190300
vn 0.903100 0.421200 -0.083500
vn 0.794700 0.187600 -0.577300
vn 0.505400 0.494100 -0.707400
vn -0.201400 0.072200 -0.976800
vn -0.516200 0.468900 -0.716600
vn -0.861400 0.426400 0.276000
vn -0.300700 0.193800 0.933800
vn 0.543800 0.452400 0.706900
vn 0.866800 0.072100 0.493400
vn 0.003700 -0.426400 -0.904500
vn -0.871200 0.060800 -0.487100
vn -0.850300 -0.187400 -0.491800
vn -0.824000 -0.497400 -0.271400
vn -0.861900 0.180100 0.474000
vn -0.866800 -0.072100 0.493400
vn -0.522000 -0.468900 0.712400
vn 0.297200 -0.186600 0.936400
vn 0.516200 -0.468900 0.716600
vn 0.305700 -0.835100 -0.457300
vn 0.002900 -0.691200 -0.722700
vn -0.594100 -0.770100 -0.232500
vn -0.639100 -0.739800 -0.210500
vn -0.474100 -0.597100 0.647000
vn 0.763900 -0.597100 -0.244800
vn 0.159800 -0.855900 0.491800
vn 0.393300 -0.739800 0.545900
usemtl CloudMaterial
s off
f 9//2 13//2 5//2
f 5//3 13//3 7//3
f 11//4 15//4 16//4
f 10//5 16//5 17//5
f 5//6 7//6 19//6
f 14//7 19//7 15//7
f 6//8 20//8 8//8
f 17//9 6//9 8//9
f 7//10 17//10 8//10
f 20//11 21//11 8//11
f 21//12 7//12 8//12
f 15//13 19//13 20//13
f 19//14 21//14 20//14
f 19//15 7//15 21//15
f 18//16 17//16 7//16
f 17//17 16//17 6//17
f 16//18 20//18 6//18
f 16//19 15//19 20//19
f 14//20 5//20 19//20
f 7//21 13//21 18//21
f 13//22 12//22 18//22
f 18//23 12//23 17//23
f 12//24 10//24 17//24
f 10//25 11//25 16//25
f 11//26 14//26 15//26
f 9//27 5//27 14//27
f 13//28 9//28 12//28
f 9//29 10//29 12//29
f 11//30 9//30 14//30
f 9//31 11//31 10//31
f 27//32 22//32 23//32
f 23//33 22//33 25//33
f 28//34 24//34 30//34
f 23//35 25//35 32//35
f 24//36 33//36 26//36
f 30//37 24//37 26//37
f 25//10 30//10 26//10
f 33//11 34//11 26//11
f 34//12 25//12 26//12
f 29//38 32//38 33//38
f 32//39 34//39 33//39
f 32//40 25//40 34//40
f 31//16 30//16 25//16
f 24//41 29//41 33//41
f 25//42 22//42 31//42
f 31//43 22//43 30//43
f 22//44 28//44 30//44
f 28//45 29//45 24//45
f 27//46 23//46 32//46
f 27//47 28//47 22//47
f 29//48 27//48 32//48
f 27//49 29//49 28//49
f 43//50 40//50 41//50
f 39//51 46//51 47//51
f 38//52 35//52 48//52
f 44//53 49//53 51//53
f 45//7 51//7 46//7
f 35//54 36//54 37//54
f 55//55 57//55 37//55
f 55//56 54//56 57//56
f 57//57 56//57 37//57
f 57//58 54//58 56//58
f 54//59 53//59 56//59
f 53//60 52//60 56//60
f 56//61 52//61 37//61
f 52//62 35//62 37//62
f 37//63 36//63 55//63
f 46//64 55//64 36//64
f 46//65 51//65 55//65
f 51//66 54//66 55//66
f 51//67 49//67 54//67
f 49//68 53//68 54//68
f 50//69 52//69 53//69
f 48//70 35//70 52//70
f 47//71 36//71 35//71
f 47//72 46//72 36//72
f 45//73 44//73 51//73
f 49//74 50//74 53//74
f 49//75 44//75 50//75
f 44//76 42//76 50//76
f 50//77 48//77 52//77
f 50//78 42//78 48//78
f 42//79 38//79 48//79
f 35//80 38//80 47//80
f 38//81 39//81 47//81
f 39//26 45//26 46//26
f 40//82 43//82 45//82
f 43//83 44//83 45//83
f 43//84 41//84 44//84
f 41//85 42//85 44//85
f 41//86 38//86 42//86
f 39//87 40//87 45//87
f 41//88 40//88 38//88
f 40//89 39//89 38//89
o Cloud1_Icosphere.005
v -4.997086 7.364948 -1.366507
v -4.827954 8.232013 -0.222037
v -5.430616 8.232011 -0.656173
v -5.203964 8.232011 -1.363491
v -4.461220 8.232013 -1.366507
v -4.228832 8.232012 -0.661048
v -4.767872 8.565153 -1.046654
v -4.893160 7.157097 -0.661048
v -4.833078 7.490237 -0.222037
v -4.230416 7.490240 -0.656173
v -4.533895 7.183033 -0.853851
v -5.432199 7.490239 -0.661048
v -5.329701 7.343234 -1.028200
v -4.457069 7.490239 -1.363492
v -4.091358 7.899071 -0.853851
v -4.602103 7.899071 -0.150870
v -5.246716 7.861125 -0.281002
v -5.246716 7.861125 -1.426700
v -5.569674 7.823179 -0.853851
v -4.602103 7.899071 -1.556832
v -4.590547 8.539219 -0.679503
v -5.127136 8.539218 -0.853851
v -2.322000 8.302881 -0.339310
v -2.491752 7.432630 -1.487988
v -1.886875 7.432631 -1.052256
v -2.114361 7.432631 -0.342337
v -2.859835 7.432630 -0.339311
v -3.093077 7.432631 -1.047363
v -2.552056 7.098265 -0.660339
v -2.426307 8.511497 -1.047363
v -2.486610 8.177132 -1.487988
v -3.091487 8.177130 -1.052257
v -2.786893 8.485466 -0.853851
v -1.885286 8.177130 -1.047363
v -1.988161 8.324677 -0.678861
v -2.864002 8.177131 -0.342337
v -3.231057 7.766796 -0.853851
v -2.718434 7.766795 -1.559417
v -2.071451 7.804881 -1.428806
v -2.071451 7.804881 -0.278896
v -1.747306 7.842966 -0.853851
v -2.718434 7.766795 -0.148286
v -2.730033 7.124294 -1.028840
v -2.191471 7.124295 -0.853851
v -3.900149 7.175727 -1.577859
v -3.661291 8.400255 0.038440
v -4.512410 8.400252 -0.574676
v -4.192317 8.400252 -1.573600
v -3.143363 8.400255 -1.577859
v -2.815170 8.400253 -0.581562
v -3.576438 8.870739 -1.126141
v -3.753379 6.882186 -0.581562
v -3.668527 7.352669 0.038440
v -2.817407 7.352673 -0.574676
v -3.246001 6.918813 -0.853851
v -4.514647 7.352672 -0.581561
v -4.369892 7.145061 -1.100079
v -3.137501 7.352671 -1.573600
v -2.621019 7.930052 -0.853851
v -3.342328 7.930052 0.138947
v -4.252694 7.876462 -0.044834
v -4.252694 7.876462 -1.662868
v -4.708798 7.822873 -0.853851
v -3.342328 7.930052 -1.846649
v -3.326008 8.834113 -0.607625
v -4.083816 8.834111 -0.853851
v -3.900149 7.175727 -1.577859
v -3.661291 8.400255 0.038440
v -4.512410 8.400252 -0.574676
v -4.192317 8.400252 -1.573600
v -3.143363 8.400255 -1.577859
v -2.815170 8.400253 -0.581562
v -3.576438 8.870739 -1.126141
v -3.753379 6.882186 -0.581562
v -3.668527 7.352669 0.038440
v -2.817407 7.352673 -0.574676
v -3.246001 6.918813 -0.853851
v -4.514647 7.352672 -0.581561
v -4.369892 7.145061 -1.100079
v -3.137501 7.352671 -1.573600
v -2.621019 7.930052 -0.853851
v -3.342328 7.930052 0.138947
v -4.252694 7.876462 -0.044834
v -4.252694 7.876462 -1.662868
v -4.708798 7.822873 -0.853851
v -3.342328 7.930052 -1.846649
v -3.326008 8.834113 -0.607625
v -4.083816 8.834111 -0.853851
vn -0.193300 -0.948500 -0.251000
vn -0.076400 -0.959400 -0.271400
vn -0.640100 -0.401500 -0.655100
vn 0.809000 0.009000 0.587800
vn -0.194100 -0.060800 0.979100
vn -0.181800 -0.208000 -0.961100
vn 0.809000 0.009000 -0.587800
vn 0.474100 0.597100 0.647000
vn -0.393300 0.739800 0.545900
vn -0.763900 0.597100 -0.244800
vn -0.002900 0.691200 -0.722700
vn 0.639100 0.739800 -0.210500
vn 0.594100 0.770100 -0.232500
vn -0.305700 0.835100 -0.457300
vn -0.027100 0.996100 0.083500
vn -0.159800 0.855900 0.491800
vn 0.824000 0.497400 -0.271400
vn 0.809000 -0.006300 -0.587800
vn -0.003500 0.497400 -0.867500
vn -0.205000 0.187400 -0.960700
vn -0.861400 0.426400 -0.276000
vn -0.516200 0.469000 0.716600
vn -0.201400 0.072200 0.976800
vn 0.512800 0.497400 0.699800
vn 0.809000 -0.006300 0.587800
vn 0.097200 -0.397100 -0.912600
vn -0.861900 0.180100 -0.474000
vn -0.838300 -0.241700 -0.488600
vn -0.903100 -0.421200 -0.083500
vn -0.871200 0.060800 0.487100
vn -0.866800 -0.072100 0.493400
vn -0.522000 -0.468900 0.712400
vn 0.528700 -0.426400 0.733900
vn 0.861400 -0.426400 -0.276000
vn 0.200400 -0.852100 -0.483400
vn -0.516100 -0.835100 0.190300
vn -0.427200 -0.691200 0.582900
vn 0.763900 -0.597100 -0.244800
vn 0.343900 -0.770100 0.537300
vn 0.393300 -0.739800 0.545900
vn -0.516200 0.468900 0.716600
vn -0.866800 -0.072200 0.493400
vn -0.201400 0.072100 0.976800
vn -0.522000 -0.469000 0.712400
usemtl CloudMaterial
s off
f 65//90 70//90 58//90
f 65//91 58//91 68//91
f 58//92 70//92 75//92
f 67//93 72//93 73//93
f 66//94 73//94 74//94
f 58//95 75//95 77//95
f 71//96 77//96 72//96
f 59//97 63//97 78//97
f 60//98 59//98 79//98
f 61//99 60//99 79//99
f 62//100 61//100 64//100
f 63//101 62//101 78//101
f 78//102 62//102 64//102
f 64//103 61//103 79//103
f 79//104 78//104 64//104
f 79//105 59//105 78//105
f 72//106 62//106 63//106
f 72//107 77//107 62//107
f 77//108 61//108 62//108
f 77//109 75//109 61//109
f 76//110 60//110 61//110
f 74//111 59//111 60//111
f 74//112 73//112 59//112
f 73//113 63//113 59//113
f 73//114 72//114 63//114
f 71//115 58//115 77//115
f 75//116 76//116 61//116
f 75//117 70//117 76//117
f 70//118 69//118 76//118
f 76//119 74//119 60//119
f 76//120 69//120 74//120
f 69//121 66//121 74//121
f 66//122 67//122 73//122
f 67//123 71//123 72//123
f 68//124 58//124 71//124
f 70//125 65//125 69//125
f 65//126 66//126 69//126
f 67//127 68//127 71//127
f 65//128 68//128 66//128
f 68//129 67//129 66//129
f 87//90 92//90 80//90
f 87//91 80//91 90//91
f 80//92 92//92 97//92
f 89//93 94//93 95//93
f 88//94 95//94 96//94
f 80//95 97//95 99//95
f 93//96 99//96 94//96
f 81//97 85//97 100//97
f 82//98 81//98 101//98
f 83//99 82//99 101//99
f 84//100 83//100 86//100
f 85//101 84//101 100//101
f 100//102 84//102 86//102
f 86//103 83//103 101//103
f 101//104 100//104 86//104
f 101//105 81//105 100//105
f 94//106 84//106 85//106
f 94//107 99//107 84//107
f 99//108 83//108 84//108
f 99//109 97//109 83//109
f 98//110 82//110 83//110
f 96//130 81//130 82//130
f 96//112 95//112 81//112
f 95//113 85//113 81//113
f 95//114 94//114 85//114
f 93//115 80//115 99//115
f 97//116 98//116 83//116
f 97//117 92//117 98//117
f 92//118 91//118 98//118
f 98//119 96//119 82//119
f 98//131 91//131 96//131
f 91//121 88//121 96//121
f 88//122 89//122 95//122
f 89//123 93//123 94//123
f 90//124 80//124 93//124
f 92//125 87//125 91//125
f 87//126 88//126 91//126
f 89//127 90//127 93//127
f 87//128 90//128 88//128
f 90//129 89//129 88//129
f 109//90 114//90 102//90
f 109//91 102//91 112//91
f 102//92 114//92 119//92
f 111//93 116//93 117//93
f 110//94 117//94 118//94
f 102//95 119//95 121//95
f 115//96 121//96 116//96
f 103//97 107//97 122//97
f 104//98 103//98 123//98
f 105//99 104//99 123//99
f 106//100 105//100 108//100
f 107//101 106//101 122//101
f 122//102 106//102 108//102
f 108//103 105//103 123//103
f 123//104 122//104 108//104
f 123//105 103//105 122//105
f 116//106 106//106 107//106
f 116//107 121//107 106//107
f 121//108 105//108 106//108
f 121//109 119//109 105//109
f 120//110 104//110 105//110
f 118//130 103//130 104//130
f 118//132 117//132 103//132
f 117//113 107//113 103//113
f 117//114 116//114 107//114
f 115//115 102//115 121//115
f 119//116 120//116 105//116
f 119//117 114//117 120//117
f 114//118 113//118 120//118
f 120//119 118//119 104//119
f 120//131 113//131 118//131
f 113//133 110//133 118//133
f 110//122 111//122 117//122
f 111//123 115//123 116//123
f 112//124 102//124 115//124
f 114//125 109//125 113//125
f 109//126 110//126 113//126
f 111//127 112//127 115//127
f 109//128 112//128 110//128
f 112//129 111//129 110//129
f 131//90 136//90 124//90
f 131//91 124//91 134//91
f 124//92 136//92 141//92
f 133//93 138//93 139//93
f 132//94 139//94 140//94
f 124//95 141//95 143//95
f 137//96 143//96 138//96
f 125//97 129//97 144//97
f 126//98 125//98 145//98
f 127//99 126//99 145//99
f 128//100 127//100 130//100
f 129//101 128//101 144//101
f 144//102 128//102 130//102
f 130//103 127//103 145//103
f 145//104 144//104 130//104
f 145//105 125//105 144//105
f 138//106 128//106 129//106
f 138//107 143//107 128//107
f 143//108 127//108 128//108
f 143//109 141//109 127//109
f 142//110 126//110 127//110
f 140//130 125//130 126//130
f 140//132 139//132 125//132
f 139//113 129//113 125//113
f 139//114 138//114 129//114
f 137//115 124//115 143//115
f 141//116 142//116 127//116
f 141//117 136//117 142//117
f 136//118 135//118 142//118
f 142//119 140//119 126//119
f 142//131 135//131 140//131
f 135//133 132//133 140//133
f 132//122 133//122 139//122
f 133//123 137//123 138//123
f 134//124 124//124 137//124
f 136//125 131//125 135//125
f 131//126 132//126 135//126
f 133//127 134//127 137//127
f 131//128 134//128 132//128
f 134//129 133//129 132//129
